<svg width="40" height="40" viewBox="0 0 40 40" fill="none" xmlns="http://www.w3.org/2000/svg">
<path d="M14.4816 16.7368C14.4816 18.9432 15.2464 21.0304 16.6448 22.7032L15.7832 23.5648L15.4968 23.2784C15.3464 23.128 15.1432 23.044 14.9312 23.044C14.7192 23.044 14.5152 23.128 14.3656 23.2784L7.76082 29.884C7.60482 30.04 7.52642 30.2448 7.52642 30.4496C7.52642 30.6544 7.60482 30.8592 7.76082 31.0152L9.52722 32.7816C9.67762 32.932 9.88083 33.016 10.0928 33.016C10.3048 33.016 10.5088 32.932 10.6584 32.7816L17.2632 26.176C17.576 25.8632 17.576 25.3576 17.2632 25.0448L16.9144 24.696L17.7728 23.8376C19.456 25.272 21.5672 26.0592 23.8024 26.0592C26.292 26.0592 28.6328 25.0896 30.3936 23.3288C32.1544 21.568 33.124 19.2272 33.124 16.7376C33.124 14.248 32.1544 11.9072 30.3936 10.1472C28.6328 8.38641 26.2928 7.41681 23.8024 7.41681C21.3128 7.41681 18.972 8.38641 17.212 10.1472C15.4504 11.9064 14.4816 14.2472 14.4816 16.7368ZM10.092 31.084L9.45762 30.4488L14.9312 24.9744L15.5656 25.6096L10.092 31.084ZM29.2616 11.2776C30.72 12.736 31.5232 14.6744 31.5232 16.7368C31.5232 18.7992 30.72 20.7384 29.2616 22.1968C27.8032 23.6552 25.864 24.4584 23.8016 24.4584C21.7392 24.4584 19.8008 23.6552 18.3424 22.1968C16.884 20.7384 16.0808 18.7992 16.0808 16.7368C16.0808 14.6744 16.884 12.736 18.3424 11.2776C19.8008 9.81921 21.74 9.01601 23.8016 9.01601C25.8648 9.01601 27.8032 9.81841 29.2616 11.2776Z" fill="white"/>
</svg>
